<?xml version="1.0" encoding="utf-8"?><!-- Generator: Adobe Illustrator 26.5.0, SVG Export Plug-In . SVG Version: 6.00 Build 0)  --><svg xmlns="http://www.w3.org/2000/svg" xmlns:xlink="http://www.w3.org/1999/xlink" version="1.1" id="Calque_1" x="0px" y="0px" viewBox="0 0 412.1 412.6" style="enable-background:new 0 0 412.1 412.6;" xml:space="preserve" width="412px" height="412px">
<style type="text/css">
	.st0{fill:#FFFFFF;}
	.st1{fill:#E7A614;}
	.st2{fill:none;}
</style>
<g>
	<path class="st0" d="M39,109.7h7.7c-0.2-3.1-0.5-16.6,9.5-25.2c0,0,10.9-10.8,42.6-8.2c0,0,32.4,2.7,32.4,26.2h-22.5   c0,0-0.8-13.1-21-12.5c0,0-20.6-0.4-18.8,19.7h62.3V120c1.8-2.8,6.6-7.5,18.6-10.7c0,0,51.1-11.3,56.3,25.2v51.3h-22.5v-42.6   c-3.3-22.9-28.9-18.7-28.9-18.7c-17.5,1.5-22.3,11.4-23.5,18.7v42.6h-22.5v-60.7H69.3v60.7H46.8v-60.7H36.6L39,109.7z"/>
	<path class="st0" d="M392.8,178.7c-7.7,5.4-20.1,9.5-40.4,8.3c-8.2-0.5-14.7-1.4-20.2-3.4c-10.1-3.7-26.4-14.2-26.3-34.4v-2.5   c-0.2-20,16.2-30.5,26.3-34.2c5.5-2.1,12-3,20.2-3.4c30.4-1.8,43.3,8.3,48.7,17.1l-1.4,9h-18.6c-3.5-7.2-10.3-11.2-22.9-11.2   c0,0-27.8-1.7-28.8,23.7v0.8c0.9,25.4,28.8,23.7,28.8,23.7c12.6,0.1,19.4-4,22.9-11.2h14.5L392.8,178.7z"/>
	<path class="st0" d="M302.5,140l0.6,45.8h-22.3l-0.7-8.6v-0.3c-8.8,11.1-30.4,10.4-30.4,10.4c-40.4,0.7-39.8-21.5-39.8-21.5   c-3.1-23.1,26.3-22.8,51-24.2c20.8-1.2,18.8-11,18.8-11c-1-8.1-18.8-8.8-18.8-8.8c-24.6-1.9-24.8,13.2-24.8,13.2h-23   c0,0,0.1-19.4,24.4-25c0.2-0.1,14.5-4.3,39.3-0.1C276.6,109.8,304.4,113.6,302.5,140 M279.8,150.2c0-0.4-0.2,0-0.2,0   c-2.5,3.4-14.8,3.4-14.8,3.4c-12.3,0.8-30.6,0.3-30.3,11.1c0.3,11.5,15.3,10.2,22.3,9.9c7.9-0.3,14.7-2.4,20.3-9.3   C281.9,159.3,279.8,150.5,279.8,150.2"/>
	<path class="st1" d="M358.2,124c0,0-27.8-1.7-28.8,23.7v0.8c0.9,25.4,28.8,23.7,28.8,23.7c12.6,0.1,19.4-4,22.9-11.2h14.6l4.1-25.8   h-18.6C377.6,127.9,370.8,123.9,358.2,124 M279.6,150.2c-2.5,3.4-14.8,3.4-14.8,3.4c-12.3,0.8-30.6,0.3-30.3,11.1   c0.3,11.5,15.3,10.2,22.3,9.9c7.9-0.3,14.7-2.4,20.3-9.3c4.9-6,2.8-14.7,2.7-15.1C279.7,149.8,279.6,150.2,279.6,150.2 M56.3,0.5   L39,109.7h7.7c-0.2-3.1-0.5-16.6,9.5-25.2c0,0,10.9-10.8,42.6-8.2c0,0,32.4,2.7,32.4,26.2l-22.5,0c0,0-0.8-13.1-21-12.5   c0,0-20.6-0.4-18.8,19.7h62.3V120c1.8-2.8,6.6-7.5,18.6-10.7c0,0,51.2-11.3,56.3,25.2v51.3h-22.5v-42.6   c-3.3-22.9-28.9-18.7-28.9-18.7c-17.5,1.5-22.3,11.4-23.5,18.7v42.6h-22.5v-60.7H69.3v60.7H46.8v-60.7H36.6L0,356.2l355.8,56.4   l37-233.9c-7.7,5.4-20.2,9.5-40.4,8.3c-8.2-0.5-14.7-1.4-20.2-3.4c-10.1-3.7-26.4-14.2-26.3-34.4v-2.5c-0.2-20,16.2-30.5,26.3-34.2   c5.5-2,12-3,20.2-3.4c30.4-1.8,43.3,8.3,48.7,17.1l11-69.3L56.3,0.5z M280.7,185.8l-0.7-8.6v-0.3c-8.8,11.1-30.4,10.4-30.4,10.4   c-40.4,0.7-39.8-21.5-39.8-21.5c-3.1-23.1,26.3-22.6,51-24.2c21-1.3,18.8-11,18.8-11c-1-8.1-18.8-8.8-18.8-8.8   c-24.6-1.9-24.8,13.2-24.8,13.2h-23c0,0,0.1-19.4,24.4-25c0.2-0.1,14.5-4.3,39.3-0.1c0,0,27.9,3.8,25.9,30.2l0.6,45.8H280.7z"/>
</g>
<rect x="82" class="st2" width="68.7" height="68.7"/>
<rect y="262.8" class="st2" width="68.7" height="68.7"/>
<rect x="343.4" y="87.2" class="st2" width="68.7" height="68.7"/>
<rect x="256" y="343.8" class="st2" width="68.7" height="68.7"/>
</svg>