<svg width="245" height="80" viewBox="0 0 245 80" fill="none" xmlns="http://www.w3.org/2000/svg">
<path d="M26.8955 51.183L21.682 66.9702H15L32.0355 16.7448H39.8924L57.0748 66.9702H50.1725L44.8122 51.183H26.8955ZM43.3436 46.1164L38.4238 31.6509C37.3224 28.3466 36.5881 25.4094 35.7804 22.4723H35.6335C34.8992 25.4829 34.0915 28.4934 33.0635 31.5775L28.1438 46.1164H43.3436Z" fill="white"/>
<path d="M62.1414 67.0438C62.2882 64.6206 62.4351 60.9492 62.4351 57.7183V14.1015H68.8968V36.791H69.0437C71.32 32.7525 75.5054 30.1824 81.3797 30.1824C90.3381 30.1824 96.653 37.6722 96.5795 48.6131C96.5795 61.5366 88.4289 67.9249 80.4252 67.9249C75.2117 67.9249 71.0263 65.9423 68.3828 61.1695H68.1625L67.8688 67.1172H62.1414V67.0438ZM68.8968 52.5783C68.8968 53.386 69.0437 54.1937 69.1905 54.928C70.4388 59.4806 74.2571 62.638 79.03 62.638C85.8589 62.638 89.9709 57.0574 89.9709 48.76C89.9709 41.5639 86.2261 35.3225 79.2503 35.3225C74.7711 35.3225 70.5857 38.4065 69.264 43.3997C69.1171 44.1339 68.8968 45.0151 68.8968 46.1165V52.5783Z" fill="white"/>
<path d="M103.335 42.2247C103.335 37.9658 103.261 34.2943 103.041 30.99H108.769L108.989 38.0392H109.283C110.898 33.1929 114.863 30.1089 119.269 30.1089C120.003 30.1089 120.517 30.1823 121.105 30.3292V36.4972C120.444 36.3503 119.783 36.2769 118.902 36.2769C114.276 36.2769 110.971 39.8015 110.09 44.7212C109.943 45.6024 109.797 46.6304 109.797 47.8053V67.0437H103.335V42.2247Z" fill="white"/>
<path d="M133.808 20.7835C133.882 22.9863 132.266 24.8221 129.623 24.8221C127.346 24.8221 125.657 23.0598 125.657 20.7835C125.657 18.5072 127.346 16.6714 129.769 16.6714C132.266 16.6714 133.808 18.5072 133.808 20.7835ZM126.539 67.0437V30.9901H133.074V67.0437H126.539Z" fill="white"/>
<path d="M150.403 20.5632V30.9167H159.802V35.9098H150.403V55.3685C150.403 59.8477 151.651 62.3442 155.323 62.3442C157.012 62.3442 158.333 62.124 159.141 61.9037L159.435 66.8234C158.187 67.3374 156.131 67.7046 153.634 67.7046C150.55 67.7046 148.127 66.75 146.585 64.9143C144.749 63.0051 144.015 59.7742 144.015 55.5154V35.8364H138.434V30.8432H144.015V22.1786L150.403 20.5632Z" fill="white"/>
<path d="M168.907 50.155C169.054 59.0399 174.708 62.7113 181.317 62.7113C186.016 62.7113 188.88 61.9036 191.303 60.8756L192.404 65.5751C190.128 66.6031 186.163 67.7779 180.435 67.7779C169.348 67.7779 162.666 60.5085 162.666 49.5676C162.666 38.7001 169.054 30.1089 179.554 30.1089C191.303 30.1089 194.46 40.4624 194.46 47.071C194.46 48.3927 194.314 49.4207 194.24 50.155H168.907ZM188.072 45.4555C188.145 41.2701 186.383 34.8083 178.967 34.8083C172.358 34.8083 169.421 40.9029 168.907 45.4555H188.072Z" fill="white"/>
<path d="M201.069 14.1015H207.604V67.0438H201.069V14.1015Z" fill="white"/>
<path d="M230 19.8289C230 23.6472 226.916 26.7312 222.951 26.7312C218.986 26.7312 215.902 23.6472 215.902 19.8289C215.902 16.0106 219.059 13 223.024 13C226.916 13 230 16.0106 230 19.8289ZM217.664 19.8289C217.664 22.9129 219.94 25.3361 223.024 25.3361C226.035 25.4095 228.238 22.9129 228.238 19.9023C228.238 16.8183 225.962 14.3952 222.951 14.3952C219.94 14.3952 217.664 16.8183 217.664 19.8289ZM221.849 23.4269H220.307V16.598C220.968 16.5246 221.849 16.3777 222.951 16.3777C224.273 16.3777 224.86 16.598 225.301 16.8917C225.741 17.1855 226.035 17.6995 226.035 18.3603C226.035 19.168 225.374 19.7555 224.64 19.9758V20.0492C225.301 20.2695 225.668 20.7835 225.888 21.738C226.108 22.7661 226.255 23.1332 226.402 23.4269H224.713C224.493 23.1332 224.419 22.6192 224.199 21.738C224.052 21.0038 223.685 20.71 222.804 20.71H222.07V23.4269H221.849ZM221.923 19.5352H222.657C223.538 19.5352 224.273 19.2415 224.273 18.5072C224.273 17.8463 223.832 17.4792 222.804 17.4792C222.363 17.4792 222.07 17.5526 221.923 17.5526V19.5352Z" fill="white"/>
</svg>
