<svg width="165" height="34" viewBox="0 0 165 34" fill="none" xmlns="http://www.w3.org/2000/svg">
<path d="M6.80385 22.8396L3.82192 31.8694H0L9.74379 3.14203H14.2377L24.0655 31.8694H20.1176L17.0516 22.8396H6.80385ZM16.2116 19.9417L13.3977 11.6678C12.7677 9.77788 12.3477 8.09792 11.8857 6.41796H11.8017C11.3818 8.13992 10.9198 9.86188 10.3318 11.6258L7.51784 19.9417H16.2116Z" fill="#0067DB"/>
<path d="M26.9634 31.9113C27.0474 30.5254 27.1314 28.4254 27.1314 26.5775V1.63H30.8274V14.6077H30.9114C32.2133 12.2978 34.6073 10.8278 37.9672 10.8278C43.0911 10.8278 46.703 15.1117 46.661 21.3696C46.661 28.7614 41.9991 32.4153 37.4212 32.4153C34.4393 32.4153 32.0453 31.2814 30.5334 28.5514H30.4074L30.2394 31.9533H26.9634V31.9113ZM30.8274 23.6375C30.8274 24.0995 30.9114 24.5615 30.9954 24.9815C31.7093 27.5854 33.8933 29.3914 36.6232 29.3914C40.5291 29.3914 42.8811 26.1995 42.8811 21.4536C42.8811 17.3377 40.7391 13.7677 36.7492 13.7677C34.1873 13.7677 31.7933 15.5317 31.0374 18.3876C30.9534 18.8076 30.8274 19.3116 30.8274 19.9416V23.6375Z" fill="#0067DB"/>
<path d="M50.5249 17.7157C50.5249 15.2797 50.4829 13.1798 50.3569 11.2898H53.6329L53.7589 15.3217H53.9269C54.8508 12.5498 57.1188 10.7858 59.6387 10.7858C60.0587 10.7858 60.3527 10.8278 60.6887 10.9118V14.4397C60.3107 14.3558 59.9327 14.3138 59.4287 14.3138C56.7828 14.3138 54.8928 16.3297 54.3888 19.1436C54.3048 19.6476 54.2209 20.2356 54.2209 20.9076V31.9114H50.5249V17.7157Z" fill="#0067DB"/>
<path d="M67.9546 5.45192C67.9966 6.7119 67.0726 7.76187 65.5606 7.76187C64.2586 7.76187 63.2927 6.7539 63.2927 5.45192C63.2927 4.14995 64.2586 3.09998 65.6446 3.09998C67.0726 3.09998 67.9546 4.14995 67.9546 5.45192ZM63.7967 31.9113V11.2898H67.5346V31.9113H63.7967Z" fill="#0067DB"/>
<path d="M77.4464 5.32593V11.2478H82.8223V14.1037H77.4464V25.2335C77.4464 27.7954 78.1604 29.2234 80.2603 29.2234C81.2263 29.2234 81.9823 29.0974 82.4443 28.9714L82.6123 31.7853C81.8983 32.0793 80.7223 32.2893 79.2943 32.2893C77.5304 32.2893 76.1444 31.7433 75.2624 30.6934C74.2124 29.6014 73.7925 27.7534 73.7925 25.3175V14.0617H70.6005V11.2058H73.7925V6.24991L77.4464 5.32593Z" fill="#0067DB"/>
<path d="M88.0301 22.2516C88.1141 27.3335 91.3481 29.4334 95.128 29.4334C97.8159 29.4334 99.4539 28.9714 100.84 28.3834L101.47 31.0714C100.168 31.6594 97.8999 32.3314 94.624 32.3314C88.2821 32.3314 84.4602 28.1734 84.4602 21.9156C84.4602 15.6997 88.1141 10.7858 94.12 10.7858C100.84 10.7858 102.646 16.7077 102.646 20.4876C102.646 21.2436 102.562 21.8316 102.52 22.2516H88.0301ZM98.9919 19.5636C99.0339 17.1697 98.0259 13.4738 93.784 13.4738C90.0041 13.4738 88.3241 16.9597 88.0301 19.5636H98.9919Z" fill="#0067DB"/>
<path d="M106.426 1.63H110.164V31.9113H106.426V1.63Z" fill="#0067DB"/>
<path d="M122.973 4.90591C122.973 7.08987 121.209 8.85383 118.941 8.85383C116.673 8.85383 114.909 7.08987 114.909 4.90591C114.909 2.72196 116.715 1 118.983 1C121.209 1 122.973 2.72196 122.973 4.90591ZM115.917 4.90591C115.917 6.66988 117.219 8.05585 118.983 8.05585C120.705 8.09785 121.965 6.66988 121.965 4.94791C121.965 3.18395 120.663 1.79798 118.941 1.79798C117.219 1.79798 115.917 3.18395 115.917 4.90591ZM118.311 6.96387H117.429V3.05796C117.807 3.01596 118.311 2.93196 118.941 2.93196C119.697 2.93196 120.033 3.05795 120.285 3.22595C120.537 3.39395 120.705 3.68794 120.705 4.06593C120.705 4.52792 120.327 4.86392 119.907 4.98991V5.03191C120.285 5.15791 120.495 5.4519 120.621 5.99789C120.747 6.58588 120.831 6.79587 120.915 6.96387H119.949C119.823 6.79587 119.781 6.50188 119.655 5.99789C119.571 5.5779 119.361 5.4099 118.857 5.4099H118.437V6.96387H118.311ZM118.353 4.73792H118.773C119.277 4.73792 119.697 4.56992 119.697 4.14993C119.697 3.77194 119.445 3.56194 118.857 3.56194C118.605 3.56194 118.437 3.60394 118.353 3.60394V4.73792Z" fill="#0067DB"/>
</svg>
